<?xml version="1.0" encoding="utf-8"?>
<!-- Generator: Adobe Illustrator 26.1.0, SVG Export Plug-In . SVG Version: 6.00 Build 0)  -->
<svg version="1.1" id="Layer_1" xmlns="http://www.w3.org/2000/svg" xmlns:xlink="http://www.w3.org/1999/xlink" x="0px" y="0px"
	 viewBox="0 0 32 32" style="enable-background:new 0 0 32 32;" xml:space="preserve">
<style type="text/css">
	.st0{fill-rule:evenodd;clip-rule:evenodd;fill:#FFFFFF;}
</style>
<g id="bubble">
	<path class="st0" d="M15.5,7.5C15.5,7.8,15.7,8,16,8c5.3,0,10,2.8,10,6c0,0.3,0.2,0.5,0.5,0.5c0.3,0,0.5-0.2,0.5-0.5
		c0-3.8-5-7-11-7C15.7,7,15.5,7.2,15.5,7.5z"/>
	<path class="st0" d="M0,14c0,6.6,7.2,12,16,12c1.1,0,2.1-0.1,3.1-0.2c0.7,0.8,3.6,3.7,6.8,4.2c0,0,0.2,0,0.3,0
		c0.5,0,0.9-0.4,0.9-0.9c0-0.1,0-0.2-0.1-0.4c0,0,0,0,0,0c-0.6-1-1.9-2.9-1.9-4.7c0,0,0,0,0-0.1c4.2-2.2,7-5.8,7-9.9
		c0-6.6-7.2-12-16-12C7.2,2,0,7.4,0,14z M2,14C2,8.5,8.3,4,16,4c7.7,0,14,4.5,14,10c0,3.2-2.2,6.3-5.9,8.1c-0.7,0.3-1.1,1-1.1,1.8
		c0,0.1,0,0.1,0,0.2c0,1,0.3,2,0.7,2.9c-1.4-0.9-2.7-2-3.1-2.5c-0.4-0.5-1-0.7-1.5-0.7c-0.1,0-0.2,0-0.3,0C17.9,23.9,16.9,24,16,24
		C8.3,24,2,19.5,2,14z"/>
</g>
</svg>
